<svg width="41" height="40" viewBox="0 0 41 40" fill="none" xmlns="http://www.w3.org/2000/svg">
<path d="M29.609 12.1845V15.2243C29.609 15.8057 30.2475 16.1629 30.7668 15.8722L40.6167 10.324C41.1275 10.0333 41.1275 9.31073 40.6167 9.02003L30.7668 3.48018C30.256 3.18948 29.609 3.55493 29.609 4.12801V7.16788H21.3086C21.4874 7.96522 21.581 8.78748 21.581 9.63465C21.581 10.515 21.4874 11.3622 21.3086 12.1928H29.609V12.1845Z" fill="#8C6005"/>
<path d="M11.3908 27.8821V24.8422C11.3908 24.2608 10.7523 23.9037 10.233 24.1944L0.383097 29.7425C-0.127699 30.0332 -0.127699 30.7558 0.383097 31.0465L10.233 36.5947C10.7438 36.8854 11.3908 36.5199 11.3908 35.9468V32.907H19.7423C19.5635 32.1013 19.4613 31.2625 19.4613 30.3987C19.4613 29.5349 19.555 28.696 19.7423 27.8904H11.3908V27.8821Z" fill="#8C6005"/>
<path d="M9.45829 18.9037C14.6599 18.8871 18.8655 14.7426 18.8484 9.64293C18.8314 4.54327 14.5918 0.431983 9.39019 0.4569C4.18007 0.473511 -0.0169749 4.61802 5.1622e-05 9.70937C0.0170782 14.809 4.25669 18.9203 9.45829 18.9037ZM4.20561 8.17283H5.28679C5.36341 7.91536 5.43152 7.64958 5.54219 7.40041C6.08704 6.10473 6.99796 5.1828 8.37711 4.74261C9.51789 4.37716 10.6672 4.38546 11.8165 4.69277C12.1144 4.77583 12.4124 4.8755 12.6933 5.00008C12.9658 5.12466 13.0424 5.3323 12.9317 5.58978C12.8125 5.88048 12.6933 6.16287 12.5571 6.44526C12.4379 6.69443 12.2932 6.76918 12.0123 6.71104C11.6547 6.63629 11.3057 6.52832 10.9481 6.45357C10.2585 6.31237 9.56897 6.30406 8.88791 6.52001C8.03658 6.78579 7.58538 7.3921 7.31295 8.17283L9.62856 8.16453C9.80734 8.16453 9.96058 8.30572 9.96058 8.48014V9.19442C9.96058 9.36884 9.81585 9.51834 9.63707 9.51834L7.10012 9.52665C7.10012 9.72598 7.10012 9.91701 7.10012 10.108L9.62856 10.0997C9.80734 10.0997 9.96058 10.2409 9.96058 10.4154V11.1296C9.96058 11.3041 9.81585 11.4536 9.63707 11.4536L7.42362 11.4619C7.42362 11.4702 7.42362 11.4785 7.42362 11.4868C7.68753 12.0765 8.07915 12.5499 8.71764 12.7908C9.45829 13.0732 10.216 13.0648 10.9737 12.907C11.3312 12.8323 11.6888 12.7243 12.0463 12.6413C12.3102 12.5831 12.4635 12.6579 12.5742 12.8987C12.7019 13.1728 12.8295 13.4552 12.9487 13.7376C13.0594 14.0034 12.9998 14.1944 12.7444 14.3439C12.6848 14.3771 12.6167 14.4104 12.5486 14.4353C11.4845 14.8423 10.3862 15.0001 9.24546 14.8256C8.44522 14.7011 7.69605 14.4353 7.05755 13.9536C6.24028 13.3389 5.71246 12.5333 5.40598 11.5781L5.36341 11.4702L4.22263 11.4785C4.04386 11.4785 3.89062 11.3373 3.89062 11.1629V10.4486C3.89062 10.2742 4.03534 10.1247 4.21412 10.1247H5.10801C5.10801 9.92532 5.10801 9.7426 5.10801 9.54326H4.21412C4.03534 9.54326 3.8821 9.40206 3.8821 9.22765V8.51336C3.8821 8.32233 4.02683 8.17283 4.20561 8.17283Z" fill="#8C6005"/>
<path d="M31.576 21.2376C26.3914 21.2376 22.1943 25.3323 22.1943 30.3904C22.1943 35.4485 26.3914 39.5432 31.576 39.5432C36.7606 39.5432 40.9576 35.4485 40.9576 30.3904C40.9576 25.3406 36.7606 21.2376 31.576 21.2376ZM34.2747 34.0034C33.866 34.4851 33.3297 34.8173 32.7082 34.9834C32.4358 35.0582 32.3166 35.1911 32.3251 35.4735C32.3336 35.7392 32.3251 36.0133 32.3251 36.2874C32.3251 36.5283 32.1974 36.6612 31.9591 36.6612C31.6611 36.6695 31.3631 36.6695 31.0652 36.6612C30.8013 36.6529 30.6821 36.5117 30.6736 36.2625C30.6736 36.0632 30.6736 35.8638 30.665 35.6728C30.6565 35.2409 30.648 35.216 30.2138 35.1495C29.6605 35.0665 29.1241 34.9419 28.6219 34.701C28.2302 34.51 28.1877 34.4186 28.2984 34.0117C28.3835 33.7127 28.4686 33.4137 28.5623 33.1147C28.6729 32.7658 28.7666 32.7243 29.0986 32.8904C29.652 33.1728 30.2479 33.3306 30.8609 33.4054C31.261 33.4552 31.6526 33.4137 32.0187 33.2559C32.7082 32.9652 32.8189 32.1844 32.2315 31.711C32.0357 31.5532 31.8058 31.4369 31.576 31.3373C30.9715 31.0798 30.3415 30.8804 29.7712 30.5482C28.8432 30.0084 28.2558 29.2608 28.3239 28.1645C28.4005 26.9187 29.1241 26.1462 30.2905 25.731C30.7757 25.5565 30.7757 25.5648 30.7757 25.0748C30.7757 24.9087 30.7757 24.7426 30.7757 24.5765C30.7842 24.2027 30.8523 24.1446 31.2269 24.128C31.3461 24.128 31.4653 24.128 31.576 24.128C32.3847 24.128 32.3847 24.128 32.3847 24.917C32.3847 25.4735 32.3847 25.4735 32.9551 25.5648C33.3893 25.6313 33.8064 25.7559 34.2066 25.9303C34.4279 26.0217 34.513 26.1795 34.4449 26.4037C34.3428 26.7442 34.2491 27.0848 34.1385 27.417C34.0363 27.7326 33.9256 27.7824 33.6192 27.6329C32.9892 27.3339 32.3336 27.2094 31.6356 27.2509C31.4568 27.2592 31.278 27.2841 31.1077 27.3589C30.5033 27.6163 30.4096 28.2642 30.9204 28.6628C31.1758 28.8622 31.4738 29.0117 31.7803 29.1363C32.3081 29.3522 32.8444 29.5599 33.3552 29.8256C34.9728 30.6894 35.4069 32.6578 34.2747 34.0034Z" fill="#8C6005"/>
</svg>
