<svg width="56" height="52" viewBox="0 0 56 52" fill="none" xmlns="http://www.w3.org/2000/svg">
<path d="M45.9498 35.1696C44.4243 34.1947 42.4 34.6434 41.4251 36.1673C37.9209 41.6487 31.9589 44.9217 25.4722 44.9217C15.0373 44.9217 6.55361 36.435 6.55361 26.0031C6.55361 15.5711 15.0373 7.08442 25.4722 7.08442C31.0068 7.08442 36.146 9.48138 39.7126 13.5818L35.7506 16.5947L47.3414 18.1658L48.9262 6.57188L44.9506 9.59545C40.1384 3.86465 33.0738 0.527771 25.4722 0.527771C11.4281 0.529292 0 11.9589 0 26.0015C0 40.0441 11.4281 51.4738 25.4722 51.4738C34.2068 51.4738 42.2342 47.0692 46.946 39.6928C47.9179 38.1688 47.4753 36.146 45.9498 35.1696Z" fill="#8C6005"/>
<path d="M40.0835 29.1149C42.4774 27.2852 44.6781 25.3719 44.6781 22.6084C44.6781 20.5293 43.2013 18.9247 40.4591 18.9247C38.92 18.9247 37.361 19.4236 36.2797 20.0928L36.8819 22.2342C37.5907 21.7977 38.5245 21.4419 39.7306 21.4419C40.9367 21.4419 41.5998 22.1278 41.5998 23.086C41.5998 24.7057 39.8553 26.2875 37.1496 28.4928L34.2356 30.7422L33.8857 32.6753H43.1177L43.5937 30.1171L38.7466 30.1141V30.0746L40.0835 29.1149Z" fill="#8C6005"/>
<path d="M54.4198 27.0981L55.9164 19.1514H52.2358L45.7871 27.3886L45.416 29.3841H51.1757L50.5521 32.6662H53.3582L53.9833 29.3841H55.5879L56 27.0921H54.4198V27.0981ZM52.2373 24.1658L51.6137 27.0997H48.7894L48.8107 27.0586L51.0388 24.1902C51.6837 23.2943 52.2038 22.4457 52.8061 21.5286H52.8898C52.6738 22.3772 52.4244 23.3111 52.2373 24.1658Z" fill="#8C6005"/>
<path d="M33.3416 18.0457C33.0131 17.7339 32.4914 17.746 32.1811 18.0745L27.2564 23.2228C26.7408 22.8898 26.1325 22.6966 25.4709 22.6966C25.4344 22.6966 25.3903 22.7012 25.3522 22.7027L18.6435 16.2844C17.8298 15.4996 16.5325 15.5301 15.7507 16.3468C14.969 17.1635 14.9994 18.4624 15.8131 19.2396L22.2252 25.3719C22.1857 25.5757 22.1644 25.7856 22.1644 26.0031C22.1644 26.7149 22.3895 27.3688 22.7697 27.9103L20.7591 30.0137C20.4488 30.3407 20.461 30.8578 20.788 31.1726C20.9462 31.3263 21.15 31.3977 21.3522 31.3977C21.5713 31.3977 21.7827 31.3126 21.9454 31.1453L24.0214 28.9734C24.461 29.1909 24.9522 29.3141 25.4739 29.3141C25.7416 29.3141 26.0002 29.2822 26.2496 29.2198L27.7598 30.6631C28.1568 31.0403 28.6648 31.2274 29.1743 31.2274C29.7127 31.2274 30.2526 31.016 30.6572 30.5977C31.4374 29.781 31.4085 28.4852 30.5918 27.7065L28.7849 25.9757C28.7819 25.4114 28.6359 24.8791 28.3819 24.4183L33.369 19.2015C33.6777 18.873 33.6656 18.3605 33.3416 18.0457Z" fill="#8C6005"/>
</svg>
