<svg width="110" height="102" viewBox="0 0 110 102" fill="none" xmlns="http://www.w3.org/2000/svg">
<path d="M56.5511 33.7954V31.8622C56.5511 30.338 55.3161 29.103 53.792 29.103C52.2678 29.103 51.0328 30.338 51.0328 31.8622V33.8613C46.1226 35.1496 42.4864 39.6699 42.4864 45.0333C42.4864 50.3953 46.123 54.9141 51.0328 56.2017V67.8004C48.6401 66.5886 46.3702 64.3408 45.552 63.3744C44.5712 62.2082 42.8311 62.0573 41.6645 63.0385C40.4983 64.0189 40.3479 65.7594 41.3286 66.926C41.8529 67.5492 45.9515 72.2681 51.0332 73.7095V75.7571C51.0332 77.2813 52.2682 78.5163 53.7923 78.5163C55.3165 78.5163 56.5515 77.2813 56.5515 75.7571V73.8088C61.5691 72.5955 65.3116 68.0267 65.3116 62.5886C65.3116 57.1512 61.5691 52.5831 56.5515 51.3698V39.5474C59.0443 40.4807 61.3028 42.3919 62.153 43.2704C63.2066 44.3696 64.9507 44.4068 66.0511 43.355C67.1522 42.3017 67.1915 40.5554 66.1383 39.4536C65.638 38.9312 61.6743 34.9315 56.5511 33.7954ZM48.0043 45.0333C48.0043 42.7749 49.2283 40.8055 51.0324 39.7747V50.2886C49.2283 49.2585 48.0043 47.2899 48.0043 45.0333ZM59.7926 62.5889C59.7926 64.9328 58.4708 66.9631 56.5507 67.9572V57.2222C58.4711 58.2155 59.7926 60.2451 59.7926 62.5889Z" fill="#8C6005"/>
<path d="M98.0859 71.899C95.1031 71.899 92.3749 73.0038 90.2823 74.8219L82.4029 69.5692C84.9884 64.8933 86.4629 59.5211 86.4629 53.81C86.4629 46.9658 84.3461 40.608 80.7352 35.3527L86.0512 31.0991C87.9109 32.3003 90.1226 33.0008 92.4966 33.0008C99.066 33.0008 104.411 27.6561 104.411 21.0863C104.411 14.5166 99.0664 9.17155 92.4966 9.17155C85.9269 9.17155 80.5818 14.5162 80.5818 21.0863C80.5818 23.2786 81.1796 25.3332 82.2167 27.0998L77.2392 31.0826C71.2974 24.9532 62.9824 21.1371 53.7919 21.1371C45.7712 21.1371 38.4182 24.0438 32.7258 28.8572L22.1516 18.3794C23.2152 16.597 23.8285 14.5162 23.8285 12.2942C23.8285 5.72444 18.4842 0.379761 11.9148 0.379761C5.34468 0.379761 0 5.72444 0 12.2942C0 18.8636 5.34468 24.2086 11.9148 24.2086C14.2663 24.2086 16.4597 23.5207 18.3083 22.3397L28.8255 32.7613C24.0209 38.4514 21.1205 45.7981 21.1205 53.8104C21.1205 60.766 23.3064 67.2195 27.0262 72.5237L17.0465 80.8402C15.8508 80.2254 14.4974 79.876 13.0633 79.876C8.24253 79.876 4.32085 83.7976 4.32085 88.6181C4.32085 93.4385 8.24253 97.3602 13.0633 97.3602C17.8834 97.3602 21.8047 93.4385 21.8047 88.6181C21.8047 87.2473 21.4869 85.9498 20.9225 84.7939L30.5623 76.7603C36.489 82.7591 44.7138 86.4825 53.7922 86.4825C58.0616 86.4825 62.1411 85.6584 65.8829 84.1622L68.3418 89.0794C67.002 90.4093 66.1706 92.2506 66.1706 94.2828C66.1706 98.3285 69.4617 101.62 73.507 101.62C77.5526 101.62 80.8438 98.3285 80.8438 94.2828C80.8438 90.2375 77.5526 86.9464 73.507 86.9464C73.4864 86.9464 73.4669 86.9493 73.4466 86.9493L70.8151 81.6867C74.0757 79.688 76.9596 77.1334 79.3358 74.1557L87.0607 79.3054C86.4897 80.6971 86.1726 82.2187 86.1726 83.8135C86.1726 90.3828 91.5169 95.7275 98.0867 95.7275C104.656 95.7275 110.001 90.3832 110.001 83.8135C110 77.2437 104.656 71.899 98.0859 71.899ZM92.4966 14.6902C96.0232 14.6902 98.8924 17.5598 98.8924 21.0867C98.8924 24.6137 96.0232 27.4828 92.4966 27.4828C88.9697 27.4828 86.1002 24.6137 86.1002 21.0867C86.1002 17.5598 88.9697 14.6902 92.4966 14.6902ZM13.063 91.8415C11.2853 91.8415 9.8388 90.3953 9.8388 88.6177C9.8388 86.8401 11.2853 85.3939 13.063 85.3939C14.8402 85.3939 16.286 86.8401 16.286 88.6177C16.286 90.3953 14.8402 91.8415 13.063 91.8415ZM75.3251 94.2832C75.3251 95.2864 74.5091 96.102 73.5066 96.102C72.5041 96.102 71.6885 95.286 71.6885 94.2832C71.6885 93.2803 72.5041 92.4651 73.5066 92.4651C74.5091 92.4651 75.3251 93.2803 75.3251 94.2832ZM11.9148 18.6899C8.38785 18.6899 5.51832 15.8208 5.51832 12.2942C5.51832 8.76724 8.38785 5.89808 11.9148 5.89808C15.441 5.89808 18.3102 8.76724 18.3102 12.2942C18.3102 15.8208 15.441 18.6899 11.9148 18.6899ZM53.7919 80.9642C38.8195 80.9642 26.6384 68.783 26.6384 53.81C26.6384 38.8369 38.8192 26.6554 53.7919 26.6554C68.7638 26.6554 80.9449 38.8366 80.9449 53.81C80.9446 68.7827 68.7638 80.9642 53.7919 80.9642ZM98.0859 90.2096C94.5594 90.2096 91.6902 87.3404 91.6902 83.8138C91.6902 80.2869 94.5594 77.4174 98.0859 77.4174C101.613 77.4174 104.482 80.2869 104.482 83.8138C104.482 87.3404 101.613 90.2096 98.0859 90.2096Z" fill="#8C6005"/>
</svg>
