<svg width="108" height="96" viewBox="0 0 108 96" fill="none" xmlns="http://www.w3.org/2000/svg">
<path d="M31.3788 55.6721C34.4138 55.6721 37.3475 55.4761 40.1236 55.1112V24.6827C37.3478 24.318 34.4138 24.1219 31.3788 24.1219C14.0491 24.1219 0.000488281 30.4936 0.000488281 38.3537V41.4401C0.000488281 49.3 14.0491 55.6721 31.3788 55.6721Z" fill="#7C4B00"/>
<path d="M31.3788 71.5608C34.4138 71.5608 37.3475 71.3648 40.1236 71.0004V62.0812C37.347 62.4459 34.4146 62.6446 31.3788 62.6446C16.2518 62.6446 3.62612 57.7895 0.660427 51.3278C0.228536 52.269 0.000488281 53.2436 0.000488281 54.2426V57.3291C0.000488281 65.1892 14.0491 71.5608 31.3788 71.5608Z" fill="#7C4B00"/>
<path d="M40.1231 78.6636V77.9703C37.3465 78.3349 34.4142 78.5337 31.3783 78.5337C16.2513 78.5337 3.62563 73.6785 0.659939 67.2168C0.228047 68.1578 0 69.1323 0 70.1314V73.2178C0 81.0782 14.0486 87.4499 31.3783 87.4499C34.8439 87.4499 38.1772 87.1944 41.2943 86.7238C40.5217 85.1433 40.1231 83.4765 40.1231 81.7497V78.6636Z" fill="#7C4B00"/>
<path d="M76.6219 0.0183105C59.2922 0.0183105 45.2437 6.38994 45.2437 14.2501V17.3365C45.2437 25.1966 59.2922 31.5682 76.6219 31.5682C93.9514 31.5682 108 25.1966 108 17.3365V14.2501C108 6.38994 93.9514 0.0183105 76.6219 0.0183105Z" fill="#7C4B00"/>
<path d="M76.6219 38.5409C61.495 38.5409 48.8693 33.686 45.9036 27.224C45.4717 28.165 45.2437 29.1395 45.2437 30.1389V33.2253C45.2437 41.0854 59.2922 47.4571 76.6219 47.4571C93.9514 47.4571 108 41.0854 108 33.2253V30.1389C108 29.1395 107.772 28.165 107.34 27.224C104.375 33.686 91.7489 38.5409 76.6219 38.5409Z" fill="#7C4B00"/>
<path d="M76.6219 54.43C61.495 54.43 48.8693 49.5749 45.9036 43.1132C45.4717 44.0541 45.2437 45.0287 45.2437 46.028V49.1145C45.2437 56.9749 59.2922 63.3465 76.6219 63.3465C93.9514 63.3465 108 56.9749 108 49.1145V46.028C108 45.0287 107.772 44.0541 107.34 43.1132C104.375 49.5751 91.7489 54.43 76.6219 54.43Z" fill="#7C4B00"/>
<path d="M76.6219 71.1767C61.495 71.1767 48.8693 66.3216 45.9036 59.8599C45.4717 60.8011 45.2437 61.7754 45.2437 62.7745V65.8612C45.2437 73.7213 59.2922 80.0929 76.6219 80.0929C93.9514 80.0929 108 73.7213 108 65.8612V62.7745C108 61.7754 107.772 60.8006 107.34 59.8599C104.375 66.3213 91.7489 71.1767 76.6219 71.1767Z" fill="#7C4B00"/>
<path d="M76.6219 87.0657C61.495 87.0657 48.8693 82.2108 45.9036 75.749C45.4717 76.6903 45.2437 77.6651 45.2437 78.6636V81.7501C45.2437 89.6102 59.2922 95.9818 76.6219 95.9818C93.9514 95.9818 108 89.6102 108 81.7501V78.6634C108 77.6643 107.772 76.6895 107.34 75.7488C104.375 82.2105 91.7489 87.0657 76.6219 87.0657Z" fill="#7C4B00"/>
</svg>
