<svg width="102" height="90" viewBox="0 0 102 90" fill="none" xmlns="http://www.w3.org/2000/svg">
<path d="M24.7148 41.432L7.96777 58.86V88.266C7.96777 89.094 8.63877 89.766 9.46777 89.766H29.8018C30.6298 89.766 31.3018 89.094 31.3018 88.266V43.158L26.6118 41.432H24.7148Z" fill="#7C4B00"/>
<path d="M66.1348 55.1001H45.8008C44.9728 55.1001 44.3008 55.7721 44.3008 56.6001V88.2661C44.3008 89.0941 44.9728 89.7661 45.8008 89.7661H66.1348C66.9638 89.7661 67.6348 89.0941 67.6348 88.2661V56.6001C67.6348 55.7721 66.9638 55.1001 66.1348 55.1001Z" fill="#7C4B00"/>
<path d="M101.724 23.4901C100.947 23.8961 100.072 24.1111 99.1938 24.1111C97.9178 24.1111 96.6728 23.6611 95.6938 22.8411L91.9998 19.7531L78.6348 34.3331V88.2671C78.6348 89.0951 79.3068 89.7671 80.1348 89.7671H100.469C101.298 89.7671 101.969 89.0951 101.969 88.2671V23.3371C101.885 23.3871 101.81 23.4451 101.724 23.4901Z" fill="#7C4B00"/>
<path d="M57.7968 48.0941C58.9408 48.5131 60.2208 48.2021 61.0448 47.3061L91.8839 13.6631L99.1008 19.6951C99.4538 19.9891 99.9479 20.0441 100.355 19.8311C100.762 19.6171 101.001 19.1831 100.96 18.7241L99.3959 1.23506C99.3409 0.610059 98.7898 0.149059 98.1648 0.206059L80.6749 1.76906C80.2169 1.81006 79.8288 2.12306 79.6928 2.56006C79.6459 2.70606 79.6308 2.85406 79.6438 3.00006C79.6698 3.29406 79.8108 3.57206 80.0468 3.76906L87.2758 9.81206L57.9798 41.7691L24.5348 29.4631C23.4168 29.0531 22.1618 29.3421 21.3368 30.1981L0.836846 51.5311C-0.311154 52.7261 -0.273154 54.6261 0.920846 55.7731C1.50385 56.3341 2.25285 56.6101 2.99985 56.6101C3.78785 56.6101 4.57385 56.3011 5.16385 55.6891L24.3048 35.7691L57.7968 48.0941Z" fill="#7C4B00"/>
</svg>
