<svg width="72" height="67" viewBox="0 0 72 67" fill="none" xmlns="http://www.w3.org/2000/svg">
<path d="M59.0783 45.4532C57.117 44.1823 54.5143 44.7672 53.2608 46.7538C48.7555 53.8992 41.0901 58.1658 32.75 58.1658C19.3336 58.1658 8.42607 47.1027 8.42607 33.504C8.42607 19.9052 19.3336 8.84218 32.75 8.84218C39.8659 8.84218 46.4734 11.9668 51.059 17.3119L45.965 21.2395L60.8676 23.2875L62.9052 8.17404L57.7936 12.1155C51.6065 4.64498 42.5234 0.295111 32.75 0.295111C14.6933 0.297093 0 15.1965 0 33.502C0 51.8075 14.6933 66.7069 32.75 66.7069C43.9802 66.7069 54.3011 60.9652 60.3592 51.3495C61.6087 49.3629 61.0397 46.726 59.0783 45.4532Z" fill="white"/>
<path d="M51.5359 37.5604C54.6138 35.1753 57.4433 32.6812 57.4433 29.0788C57.4433 26.3685 55.5446 24.2769 52.0189 24.2769C50.0399 24.2769 48.0356 24.9272 46.6453 25.7995L47.4196 28.591C48.3309 28.022 49.5315 27.5581 51.0822 27.5581C52.6329 27.5581 53.4855 28.4523 53.4855 29.7013C53.4855 31.8128 51.2426 33.8747 47.7638 36.7495L44.0171 39.6818L43.5674 42.2017H55.437L56.0491 38.8669L49.817 38.863V38.8114L51.5359 37.5604Z" fill="white"/>
<path d="M69.9684 34.9315L71.8926 24.5723H67.1604L58.8692 35.3101L58.3921 37.9113H65.7974L64.9957 42.1898H68.6035L69.4072 37.9113H71.4702L72.0001 34.9235H69.9684V34.9315ZM67.1623 31.109L66.3606 34.9334H62.7293L62.7567 34.8799L65.6214 31.1407C66.4505 29.9729 67.1193 28.8666 67.8937 27.6711H68.0012C67.7235 28.7774 67.4028 29.9947 67.1623 31.109Z" fill="white"/>
<path d="M42.8676 23.1309C42.4452 22.7245 41.7745 22.7403 41.3756 23.1686L35.0438 29.8797C34.3809 29.4455 33.5987 29.1938 32.7481 29.1938C32.7012 29.1938 32.6445 29.1997 32.5956 29.2017L23.9701 20.835C22.9239 19.812 21.2559 19.8517 20.2508 20.9163C19.2457 21.981 19.2848 23.6741 20.331 24.6873L28.5752 32.6812C28.5243 32.9468 28.497 33.2205 28.497 33.504C28.497 34.4318 28.7864 35.2844 29.2752 35.9902L26.6901 38.7321C26.2912 39.1584 26.3068 39.8325 26.7273 40.2429C26.9306 40.4431 27.1927 40.5363 27.4527 40.5363C27.7343 40.5363 28.0061 40.4253 28.2154 40.2072L30.8846 37.376C31.4497 37.6595 32.0813 37.8201 32.752 37.8201C33.0962 37.8201 33.4286 37.7785 33.7493 37.6972L35.6911 39.5787C36.2015 40.0704 36.8546 40.3143 37.5097 40.3143C38.2019 40.3143 38.8961 40.0387 39.4162 39.4935C40.4194 38.4288 40.3822 36.7396 39.3322 35.7245L37.0091 33.4683C37.0052 32.7327 36.8174 32.0388 36.4909 31.4381L42.9028 24.6377C43.2998 24.2095 43.2841 23.5413 42.8676 23.1309Z" fill="white"/>
</svg>
